<svg width="605" height="115" viewBox="0 0 605 115" fill="none" xmlns="http://www.w3.org/2000/svg">
<path d="M118.677 93.248C116.885 93.248 114.933 93.088 112.821 92.768C110.773 92.448 108.821 91.776 106.965 90.752C105.109 89.728 103.637 88.192 102.549 86.144C100.821 84.992 99.5086 83.136 98.6126 80.576C97.7166 77.952 97.2686 74.88 97.2686 71.36C97.2686 67.264 97.6846 62.944 98.5166 58.4C99.4126 53.856 100.661 49.44 102.261 45.152C103.925 40.8 105.909 36.896 108.213 33.44C110.581 29.92 113.237 27.136 116.181 25.088C119.189 22.976 122.453 21.92 125.973 21.92C128.085 21.92 129.909 22.176 131.445 22.688C133.045 23.136 134.485 24.288 135.765 26.144C138.325 26.976 140.117 28.48 141.141 30.656C142.165 32.832 142.613 35.04 142.485 37.28C142.421 39.392 141.813 41.824 140.661 44.576C139.509 47.264 138.453 49.952 137.493 52.64C137.237 53.28 136.949 53.792 136.629 54.176C136.373 54.56 135.893 54.752 135.189 54.752C133.717 54.752 132.277 54.24 130.869 53.216C129.525 52.192 128.405 50.912 127.509 49.376C126.677 47.84 126.261 46.336 126.261 44.864C126.261 43.2 126.581 41.152 127.221 38.72C127.925 36.224 128.885 34.112 130.101 32.384C128.053 32.704 126.101 33.856 124.245 35.84C122.453 37.824 120.789 40.448 119.253 43.712C117.781 46.912 116.501 50.496 115.413 54.464C114.325 58.432 113.461 62.592 112.821 66.944C112.245 71.296 111.957 75.552 111.957 79.712C115.157 79.712 118.005 79.232 120.501 78.272C123.061 77.312 125.301 76.064 127.221 74.528C129.141 72.992 130.805 71.36 132.213 69.632C133.685 67.904 134.997 66.304 136.149 64.832C138.773 65.28 140.085 67.296 140.085 70.88C140.085 74.784 139.125 78.464 137.205 81.92C135.285 85.312 132.693 88.064 129.429 90.176C126.229 92.224 122.645 93.248 118.677 93.248ZM165.447 93.44C163.335 93.44 161.287 93.024 159.303 92.192C157.383 91.424 155.815 90.08 154.599 88.16C151.527 86.688 149.159 84.128 147.495 80.48C145.831 76.832 144.999 72.576 144.999 67.712C144.999 63.488 145.575 59.488 146.727 55.712C147.879 51.872 149.447 48.48 151.431 45.536C153.415 42.592 155.687 40.288 158.247 38.624C160.871 36.896 163.623 36.032 166.503 36.032C168.935 36.032 171.367 36.48 173.799 37.376C176.231 38.208 178.343 39.744 180.135 41.984C183.271 43.584 185.671 45.92 187.335 48.992C189.063 52.064 189.927 55.424 189.927 59.072C189.927 63.744 189.447 68.16 188.487 72.32C187.527 76.48 186.055 80.16 184.071 83.36C182.087 86.496 179.559 88.96 176.487 90.752C173.415 92.544 169.735 93.44 165.447 93.44ZM163.527 82.88C165.447 82.88 167.143 82.048 168.615 80.384C170.087 78.72 171.335 76.608 172.359 74.048C173.383 71.424 174.151 68.608 174.663 65.6C175.239 62.592 175.527 59.744 175.527 57.056C175.527 54.112 175.175 51.648 174.471 49.664C173.831 47.68 172.775 46.688 171.303 46.688C169.383 46.688 167.687 47.52 166.215 49.184C164.743 50.848 163.495 52.992 162.471 55.616C161.447 58.176 160.647 60.96 160.071 63.968C159.559 66.976 159.303 69.824 159.303 72.512C159.303 75.456 159.655 77.92 160.359 79.904C161.063 81.888 162.119 82.88 163.527 82.88ZM235.256 93.344C230.968 93.344 227.992 92.096 226.328 89.6C224.728 87.104 223.928 83.904 223.928 80C223.928 76.992 224.312 73.696 225.08 70.112C225.848 66.464 226.744 62.784 227.768 59.072H227.576C224.376 64.256 221.4 69.696 218.648 75.392C215.896 81.024 213.336 86.912 210.968 93.056C207.512 93.056 204.824 91.872 202.904 89.504C200.92 88.608 199.448 87.296 198.488 85.568C197.592 83.776 197.144 81.888 197.144 79.904C197.144 74.016 197.496 67.52 198.2 60.416C198.904 53.312 200.088 45.92 201.752 38.24C201.944 37.024 202.616 36.416 203.768 36.416C205.496 36.416 207.128 36.832 208.664 37.664C210.2 38.432 211.448 39.552 212.408 41.024C213.368 42.496 213.848 44.224 213.848 46.208C213.848 46.528 213.848 46.88 213.848 47.264C213.848 47.648 213.784 48.032 213.656 48.416L208.856 73.184H209.048C210.648 69.536 212.248 65.92 213.848 62.336C215.512 58.688 217.176 55.392 218.84 52.448C220.568 49.44 222.36 47.04 224.216 45.248C226.072 43.392 227.992 42.464 229.976 42.464C231.576 42.464 233.272 43.296 235.064 44.96C236.856 45.472 238.2 46.336 239.096 47.552C240.056 48.704 240.536 49.984 240.536 51.392C240.536 51.584 240.536 51.776 240.536 51.968C240.536 52.16 240.504 52.352 240.44 52.544C240.184 53.952 239.896 55.936 239.576 58.496C239.256 60.992 238.936 63.84 238.616 67.04C238.36 70.176 238.136 73.472 237.944 76.928C237.752 80.32 237.656 83.616 237.656 86.816C237.656 87.84 237.688 88.864 237.752 89.888C237.88 90.912 238.008 91.872 238.136 92.768C237.176 93.152 236.216 93.344 235.256 93.344ZM265.14 93.248C261.812 93.248 258.612 92.768 255.54 91.808C252.468 90.848 249.94 89.376 247.956 87.392C246.036 85.344 245.076 82.816 245.076 79.808C245.076 78.144 245.396 76.672 246.036 75.392C246.74 74.112 247.7 73.472 248.916 73.472C249.94 75.136 251.252 76.576 252.852 77.792C254.516 79.008 256.244 79.936 258.036 80.576C259.892 81.152 261.556 81.44 263.028 81.44C264.5 81.44 265.716 81.152 266.676 80.576C267.636 79.936 268.116 78.976 268.116 77.696C268.116 76.928 267.828 76.192 267.252 75.488C266.676 74.784 265.556 74.144 263.892 73.568L255.732 70.784C252.596 69.696 250.452 68.352 249.3 66.752C248.212 65.152 247.668 62.944 247.668 60.128C247.668 57.824 248.212 55.328 249.3 52.64C250.452 49.888 251.988 47.264 253.908 44.768C255.892 42.272 258.1 40.256 260.532 38.72C263.028 37.12 265.62 36.32 268.308 36.32C270.484 36.32 272.468 36.544 274.26 36.992C276.052 37.376 277.62 38.464 278.964 40.256C281.076 41.216 282.612 42.528 283.572 44.192C284.596 45.856 285.108 47.328 285.108 48.608C285.108 49.952 284.756 51.36 284.052 52.832C283.348 54.304 282.58 55.808 281.748 57.344C280.98 58.88 280.372 60.384 279.924 61.856C279.796 62.304 279.604 62.688 279.348 63.008C279.156 63.328 278.74 63.488 278.1 63.488C277.396 63.488 276.596 63.168 275.7 62.528C274.804 61.888 273.908 61.12 273.012 60.224C272.18 59.264 271.476 58.336 270.9 57.44C270.388 56.48 270.132 55.744 270.132 55.232C270.132 53.696 270.548 52.224 271.38 50.816C272.212 49.408 272.628 48.288 272.628 47.456C272.628 47.136 272.596 46.88 272.532 46.688C272.468 46.432 272.244 46.304 271.86 46.304C270.644 46.304 269.332 47.072 267.924 48.608C266.58 50.08 265.428 51.936 264.468 54.176C263.508 56.352 263.028 58.528 263.028 60.704C263.028 61.984 264.02 62.976 266.004 63.68L275.508 67.328C280.564 69.312 283.092 72.512 283.092 76.928C283.092 80.256 282.228 83.168 280.5 85.664C278.836 88.096 276.628 89.984 273.876 91.328C271.124 92.608 268.212 93.248 265.14 93.248ZM308.489 93.344C303.945 93.344 300.233 92.256 297.353 90.08C294.473 87.904 292.361 85.088 291.017 81.632C289.673 78.176 289.001 74.56 289.001 70.784C289.001 67.52 289.097 64.032 289.289 60.32C289.545 56.608 289.833 52.96 290.153 49.376C290.537 45.792 290.857 42.56 291.113 39.68C291.241 38.208 291.593 37.312 292.169 36.992C292.745 36.608 293.513 36.416 294.473 36.416C295.945 36.416 297.513 36.8 299.177 37.568C300.905 38.336 302.377 39.328 303.593 40.544C304.873 41.76 305.513 43.04 305.513 44.384C305.513 44.768 305.417 45.952 305.225 47.936C305.033 49.856 304.777 52.192 304.457 54.944C304.201 57.696 303.977 60.512 303.785 63.392C303.593 66.208 303.497 68.672 303.497 70.784C303.497 77.184 305.161 80.384 308.489 80.384C310.345 80.384 311.849 79.232 313.001 76.928C314.217 74.624 315.209 71.584 315.977 67.808C316.745 63.968 317.353 59.712 317.801 55.04C318.249 50.368 318.601 45.664 318.857 40.928C318.921 39.968 319.273 39.392 319.913 39.2C320.553 38.944 321.097 38.816 321.545 38.816C322.889 38.816 324.425 39.328 326.153 40.352C327.881 41.312 329.385 42.656 330.665 44.384C331.945 46.048 332.585 48 332.585 50.24C332.585 54.336 332.329 58.432 331.817 62.528C331.369 66.624 330.601 70.528 329.513 74.24C328.425 77.888 326.953 81.152 325.097 84.032C323.305 86.912 321.033 89.184 318.281 90.848C315.529 92.512 312.265 93.344 308.489 93.344ZM350.133 93.344C348.469 93.344 346.645 92.96 344.661 92.192C342.741 91.488 341.077 90.24 339.669 88.448C338.325 86.592 337.653 84.032 337.653 80.768C337.653 80 337.717 78.24 337.845 75.488C338.037 72.736 338.261 69.344 338.517 65.312C338.837 61.28 339.157 56.992 339.477 52.448C339.861 47.84 340.245 43.328 340.629 38.912C341.013 34.496 341.397 30.528 341.781 27.008C342.165 23.424 342.517 20.704 342.837 18.848C342.965 18.336 343.285 18.016 343.797 17.888C344.309 17.696 344.757 17.6 345.141 17.6C346.549 17.6 348.149 18.016 349.941 18.848C351.797 19.68 353.365 20.96 354.645 22.688C355.989 24.416 356.533 26.624 356.277 29.312C356.149 30.72 355.957 32.928 355.701 35.936C355.445 38.944 355.125 42.432 354.741 46.4C354.421 50.368 354.101 54.56 353.781 58.976C353.461 63.328 353.141 67.616 352.821 71.84C352.565 76.064 352.341 79.936 352.149 83.456C351.957 86.912 351.861 89.696 351.861 91.808C351.861 92.128 351.701 92.448 351.381 92.768C351.125 93.152 350.709 93.344 350.133 93.344ZM378.357 93.44C376.949 93.44 375.253 92.992 373.269 92.096C371.349 91.264 369.909 89.76 368.949 87.584C367.285 86.56 366.037 85.184 365.205 83.456C364.373 81.664 363.957 79.584 363.957 77.216C363.957 75.68 363.989 73.44 364.053 70.496C364.117 67.552 364.213 64.16 364.341 60.32C364.533 56.48 364.789 52.448 365.109 48.224C363.381 47.456 361.813 46.336 360.405 44.864C359.061 43.328 358.389 42.08 358.389 41.12C358.389 40.352 358.517 39.744 358.773 39.296C359.093 38.848 359.669 38.592 360.501 38.528C362.293 38.272 364.149 38.048 366.069 37.856C366.325 35.808 366.581 33.824 366.837 31.904C367.093 29.984 367.381 28.096 367.701 26.24C367.893 25.216 368.181 24.544 368.565 24.224C368.949 23.84 369.493 23.648 370.197 23.648C372.117 23.648 373.973 24.128 375.765 25.088C377.621 26.048 379.125 27.136 380.277 28.352C381.493 29.568 382.037 30.56 381.909 31.328C381.589 33.248 381.333 35.04 381.141 36.704C382.037 36.704 382.869 36.704 383.637 36.704C384.597 36.704 385.717 36.992 386.997 37.568C388.341 38.08 389.621 38.752 390.837 39.584C392.053 40.416 393.077 41.312 393.909 42.272C394.741 43.168 395.157 44 395.157 44.768C395.157 45.92 394.869 46.656 394.293 46.976C393.717 47.296 392.821 47.456 391.605 47.456C390.517 47.456 388.853 47.552 386.613 47.744C384.373 47.872 382.005 48.032 379.509 48.224C378.805 53.664 378.165 59.072 377.589 64.448C377.077 69.824 376.725 75.232 376.533 80.672C378.965 79.968 380.917 79.008 382.389 77.792C383.861 76.512 385.045 75.328 385.941 74.24C386.901 73.088 387.797 72.352 388.629 72.032C389.013 71.84 389.429 71.744 389.877 71.744C391.029 71.744 391.989 72.32 392.757 73.472C393.589 74.624 394.005 76.064 394.005 77.792C394.005 79.712 393.429 81.6 392.277 83.456C391.189 85.312 389.781 87.008 388.053 88.544C386.325 90.016 384.597 91.2 382.869 92.096C381.141 92.992 379.637 93.44 378.357 93.44ZM410.135 93.344C408.471 93.344 406.711 93.024 404.855 92.384C403.063 91.744 401.527 90.816 400.247 89.6C399.031 88.384 398.423 86.912 398.423 85.184C398.423 84.16 398.487 82.336 398.615 79.712C398.743 77.088 398.903 74.048 399.095 70.592C399.287 67.072 399.511 63.456 399.767 59.744C400.023 55.968 400.311 52.384 400.631 48.992C400.951 45.6 401.239 42.72 401.495 40.352C401.559 39.84 401.879 39.52 402.455 39.392C403.031 39.2 403.511 39.104 403.895 39.104C405.367 39.104 406.999 39.52 408.791 40.352C410.583 41.184 412.119 42.24 413.399 43.52C414.743 44.8 415.415 46.144 415.415 47.552C415.415 48.384 415.287 50.048 415.031 52.544C414.775 54.976 414.455 57.888 414.071 61.28C413.751 64.672 413.399 68.224 413.015 71.936C412.695 75.648 412.407 79.264 412.151 82.784C411.895 86.24 411.767 89.248 411.767 91.808C411.767 92.128 411.639 92.448 411.383 92.768C411.127 93.152 410.711 93.344 410.135 93.344ZM411.479 29.6C409.367 29.6 407.415 29.376 405.623 28.928C403.895 28.416 402.519 27.52 401.495 26.24C400.535 24.96 400.119 23.136 400.247 20.768C400.375 19.552 400.535 18.24 400.727 16.832C400.983 15.36 401.815 14.464 403.223 14.144C403.991 14.016 404.919 13.92 406.007 13.856C407.095 13.792 408.055 13.76 408.887 13.76C410.679 13.76 412.663 14.048 414.839 14.624C415.927 14.88 416.471 15.296 416.471 15.872C416.471 17.344 416.247 19.072 415.799 21.056C415.351 23.04 414.871 25.76 414.359 29.216C413.335 29.472 412.375 29.6 411.479 29.6ZM437.28 93.344C435.616 93.344 433.856 92.992 432 92.288C430.144 91.584 428.576 90.432 427.296 88.832C426.016 87.168 425.408 84.896 425.472 82.016C425.6 78.048 425.696 73.6 425.76 68.672C425.824 63.68 426.08 58.624 426.528 53.504C424.864 52.672 423.36 51.52 422.016 50.048C420.736 48.576 420.096 47.392 420.096 46.496C420.096 45.728 420.224 45.152 420.48 44.768C420.8 44.32 421.376 44.032 422.208 43.904C424.192 43.52 426.048 43.2 427.776 42.944C428.672 36.992 429.792 32.224 431.136 28.64C432.544 24.992 434.304 22.368 436.416 20.768C438.592 19.168 441.312 18.368 444.576 18.368C447.776 18.368 450.528 19.04 452.832 20.384C455.136 21.728 456.896 23.328 458.112 25.184C459.392 27.04 460.032 28.8 460.032 30.464C460.032 31.36 459.776 32.128 459.264 32.768C458.752 33.344 457.952 33.632 456.864 33.632C454.496 33.632 452.608 33.376 451.2 32.864C449.792 32.352 448.672 31.872 447.84 31.424C447.008 30.912 446.208 30.656 445.44 30.656C444.48 30.656 443.744 31.488 443.232 33.152C442.72 34.816 442.24 37.6 441.792 41.504C442.048 41.504 442.304 41.504 442.56 41.504C443.52 41.504 444.64 41.792 445.92 42.368C447.264 42.88 448.544 43.552 449.76 44.384C450.976 45.216 452 46.112 452.832 47.072C453.664 47.968 454.08 48.8 454.08 49.568C454.08 50.72 453.792 51.456 453.216 51.776C452.64 52.096 451.744 52.256 450.528 52.256C449.504 52.256 448.096 52.384 446.304 52.64C444.512 52.832 442.624 53.024 440.64 53.216C440.64 53.664 440.608 54.08 440.544 54.464C440.544 54.848 440.512 55.264 440.448 55.712C440.064 60.192 439.776 65.44 439.584 71.456C439.456 77.408 439.232 84.192 438.912 91.808C438.912 92.128 438.784 92.448 438.528 92.768C438.272 93.152 437.856 93.344 437.28 93.344ZM466.404 110.24C463.716 110.24 461.764 109.824 460.548 108.992C459.332 108.224 458.564 107.392 458.244 106.496C457.924 105.664 457.764 105.184 457.764 105.056C457.764 104.48 457.924 104.064 458.244 103.808C458.564 103.616 458.884 103.456 459.204 103.328C459.716 103.072 460.58 102.496 461.796 101.6C463.076 100.704 464.42 99.296 465.828 97.376C467.236 95.52 468.42 93.056 469.38 89.984C467.268 88.768 465.54 87.008 464.196 84.704C462.916 82.4 462.02 80.032 461.508 77.6C461.188 76 460.836 73.888 460.452 71.264C460.068 68.64 459.652 65.76 459.204 62.624C458.82 59.488 458.436 56.384 458.052 53.312C457.668 50.24 457.316 47.424 456.996 44.864C456.74 42.24 456.516 40.16 456.324 38.624C456.132 37.024 456.036 36.224 456.036 36.224C456.356 35.456 457.508 35.072 459.492 35.072C460.964 35.072 462.692 35.616 464.676 36.704C466.66 37.792 468.42 39.232 469.956 41.024C471.492 42.752 472.324 44.672 472.452 46.784C472.516 47.552 472.676 49.44 472.932 52.448C473.188 55.456 473.476 59.04 473.796 63.2C474.116 67.36 474.436 71.616 474.756 75.968H475.044L485.316 36.704C485.508 35.936 486.564 35.552 488.484 35.552C489.892 35.552 491.428 35.904 493.092 36.608C494.82 37.312 496.292 38.304 497.508 39.584C498.788 40.864 499.428 42.368 499.428 44.096C499.428 44.352 499.428 44.64 499.428 44.96C499.428 45.28 499.364 45.6 499.236 45.92C499.172 46.176 498.852 47.2 498.276 48.992C497.7 50.784 496.9 53.12 495.876 56C494.916 58.816 493.796 61.984 492.516 65.504C491.3 68.96 490.02 72.576 488.676 76.352C487.332 80.064 486.02 83.712 484.74 87.296C483.268 91.392 481.604 95.168 479.748 98.624C477.956 102.144 475.94 104.96 473.7 107.072C471.524 109.184 469.092 110.24 466.404 110.24ZM507.38 96.128C505.204 96.128 503.252 95.296 501.524 93.632C499.86 92.032 499.028 89.568 499.028 86.24C499.028 84.896 499.22 83.392 499.604 81.728C498.516 80.832 497.684 79.808 497.108 78.656C496.532 77.44 496.244 76.416 496.244 75.584C496.308 75.072 496.756 74.656 497.588 74.336C498.484 74.016 499.988 73.728 502.1 73.472C504.02 68.032 506.228 62.048 508.724 55.52C511.284 48.992 514.26 41.888 517.652 34.208C518.42 32.544 519.476 31.712 520.82 31.712C521.396 31.712 522.004 31.872 522.644 32.192C522.516 30.336 522.388 28.512 522.26 26.72C522.196 25.184 522.484 24.064 523.124 23.36C523.828 22.656 524.692 22.304 525.716 22.304C526.996 22.304 528.372 22.784 529.844 23.744C531.316 24.704 532.596 26.048 533.684 27.776C534.772 29.504 535.348 31.584 535.412 34.016C535.476 36.448 535.668 39.584 535.988 43.424C536.372 47.2 536.82 51.296 537.332 55.712C537.844 60.064 538.388 64.352 538.964 68.576C540.308 68.768 541.684 69.248 543.092 70.016C544.564 70.72 545.812 71.648 546.836 72.8C547.86 73.888 548.372 75.136 548.372 76.544C548.372 77.568 548.02 78.208 547.316 78.464C546.612 78.72 545.716 78.848 544.628 78.848H542.324C542.004 78.848 541.684 78.848 541.364 78.848C541.108 78.848 540.82 78.848 540.5 78.848C541.012 81.856 541.492 84.384 541.94 86.432C542.388 88.48 542.804 89.824 543.188 90.464C543.572 91.104 543.316 91.744 542.42 92.384C541.524 93.024 540.5 93.344 539.348 93.344C537.172 93.344 535.252 92.576 533.588 91.04C531.924 89.504 530.74 86.592 530.036 82.304C529.908 81.728 529.812 81.12 529.748 80.48L511.796 83.264C511.092 85.44 510.388 87.584 509.684 89.696C509.172 91.36 508.884 92.672 508.82 93.632C508.82 94.592 508.788 95.232 508.724 95.552C508.66 95.936 508.212 96.128 507.38 96.128ZM524.66 50.72C523.124 54.304 521.652 57.824 520.244 61.28C518.836 64.736 517.46 68.128 516.116 71.456L527.828 69.824C527.252 66.624 526.676 63.456 526.1 60.32C525.588 57.184 525.108 53.984 524.66 50.72ZM575.211 93.44C573.227 93.44 571.275 93.12 569.355 92.48C567.435 91.84 565.899 90.656 564.747 88.928C559.883 86.56 556.395 83.136 554.283 78.656C552.235 74.112 551.211 68.32 551.211 61.28C551.211 56.544 551.787 51.872 552.939 47.264C554.155 42.656 555.915 38.464 558.219 34.688C560.523 30.912 563.371 27.904 566.763 25.664C570.219 23.36 574.155 22.208 578.571 22.208C581.003 22.208 583.435 22.624 585.867 23.456C588.299 24.288 590.091 25.632 591.243 27.488C594.251 28.576 596.523 30.24 598.059 32.48C599.595 34.72 600.619 37.472 601.131 40.736C601.707 44 601.995 47.744 601.995 51.968C601.995 55.68 601.611 59.488 600.843 63.392C600.075 67.296 598.955 71.04 597.483 74.624C596.011 78.208 594.187 81.408 592.011 84.224C589.835 87.04 587.339 89.28 584.523 90.944C581.707 92.608 578.603 93.44 575.211 93.44ZM571.659 82.496C573.707 81.984 575.627 80.544 577.419 78.176C579.275 75.744 580.907 72.768 582.315 69.248C583.787 65.664 584.939 61.92 585.771 58.016C586.603 54.048 587.019 50.304 587.019 46.784C587.019 43.392 586.571 40.32 585.675 37.568C584.843 34.816 583.499 33.216 581.643 32.768C579.275 33.216 577.131 34.624 575.211 36.992C573.355 39.36 571.787 42.272 570.507 45.728C569.291 49.184 568.331 52.864 567.627 56.768C566.987 60.608 566.667 64.288 566.667 67.808C566.667 71.712 567.051 74.912 567.819 77.408C568.651 79.84 569.931 81.536 571.659 82.496Z" fill="url(#paint0_linear_8_10)"/>
<path d="M72.3019 71.1107C70.5816 71.1107 68.8999 70.6006 67.4695 69.6448C66.0391 68.6891 64.9242 67.3306 64.2659 65.7412C63.6075 64.1519 63.4353 62.403 63.7709 60.7157C64.1065 59.0284 64.9349 57.4786 66.1514 56.2621C67.3678 55.0456 68.9177 54.2172 70.605 53.8816C72.2922 53.546 74.0411 53.7182 75.6305 54.3766C77.2199 55.0349 78.5783 56.1498 79.5341 57.5802C80.4899 59.0106 81 60.6923 81 62.4126C81 64.7195 80.0836 66.9319 78.4524 68.5631C76.8212 70.1943 74.6088 71.1107 72.3019 71.1107ZM72.3019 56.6139C71.155 56.6139 70.0339 56.954 69.0803 57.5911C68.1267 58.2283 67.3834 59.1339 66.9445 60.1935C66.5056 61.2531 66.3908 62.419 66.6145 63.5439C66.8383 64.6687 67.3906 65.702 68.2015 66.5129C69.0125 67.3239 70.0458 67.8762 71.1706 68.0999C72.2954 68.3237 73.4614 68.2089 74.521 67.77C75.5806 67.3311 76.4862 66.5878 77.1234 65.6342C77.7605 64.6806 78.1006 63.5595 78.1006 62.4126C78.1006 60.8747 77.4897 59.3998 76.4022 58.3123C75.3147 57.2248 73.8398 56.6139 72.3019 56.6139Z" fill="url(#paint1_linear_8_10)"/>
<path d="M74.4764 63.8624H70.1273C69.7429 63.8624 69.3741 63.7097 69.1023 63.4378C68.8304 63.1659 68.6777 62.7972 68.6777 62.4127C68.6777 62.0282 68.8304 61.6595 69.1023 61.3876C69.3741 61.1157 69.7429 60.963 70.1273 60.963H74.4764C74.8609 60.963 75.2296 61.1157 75.5015 61.3876C75.7734 61.6595 75.9261 62.0282 75.9261 62.4127C75.9261 62.7972 75.7734 63.1659 75.5015 63.4378C75.2296 63.7097 74.8609 63.8624 74.4764 63.8624Z" fill="url(#paint2_linear_8_10)"/>
<path d="M72.3019 66.0369C71.9174 66.0369 71.5487 65.8842 71.2768 65.6123C71.0049 65.3404 70.8522 64.9717 70.8522 64.5872V60.2381C70.8522 59.8537 71.0049 59.4849 71.2768 59.2131C71.5487 58.9412 71.9174 58.7885 72.3019 58.7885C72.6864 58.7885 73.0551 58.9412 73.327 59.2131C73.5988 59.4849 73.7516 59.8537 73.7516 60.2381V64.5872C73.7516 64.9717 73.5988 65.3404 73.327 65.6123C73.0551 65.8842 72.6864 66.0369 72.3019 66.0369Z" fill="url(#paint3_linear_8_10)"/>
<path d="M51.2814 82.7082C48.7835 82.7044 46.3889 81.7104 44.6226 79.9441C42.8563 78.1778 41.8623 75.7832 41.8584 73.2853V55.1642C41.8584 54.7797 42.0112 54.4109 42.283 54.1391C42.5549 53.8672 42.9236 53.7145 43.3081 53.7145H46.2075C46.592 53.7145 46.9607 53.8672 47.2326 54.1391C47.5044 54.4109 47.6572 54.7797 47.6572 55.1642C47.6572 55.5486 47.5044 55.9174 47.2326 56.1893C46.9607 56.4611 46.592 56.6139 46.2075 56.6139H44.7578V73.2853C44.7578 75.0154 45.4451 76.6747 46.6685 77.8981C47.8919 79.1216 49.5512 79.8089 51.2814 79.8089C53.0116 79.8089 54.6709 79.1216 55.8943 77.8981C57.1177 76.6747 57.805 75.0154 57.805 73.2853V56.6139H56.3553C55.9708 56.6139 55.6021 56.4611 55.3302 56.1893C55.0584 55.9174 54.9056 55.5486 54.9056 55.1642C54.9056 54.7797 55.0584 54.4109 55.3302 54.1391C55.6021 53.8672 55.9708 53.7145 56.3553 53.7145H59.2547C59.6392 53.7145 60.0079 53.8672 60.2798 54.1391C60.5516 54.4109 60.7044 54.7797 60.7044 55.1642V73.2853C60.7005 75.7832 59.7065 78.1778 57.9402 79.9441C56.1739 81.7104 53.7794 82.7044 51.2814 82.7082Z" fill="url(#paint4_linear_8_10)"/>
<path d="M61.7916 95.7555C58.6208 95.7517 55.581 94.4904 53.3389 92.2483C51.0968 90.0062 49.8355 86.9664 49.8317 83.7956V81.2586C49.8317 80.8741 49.9844 80.5054 50.2563 80.2335C50.5282 79.9617 50.8969 79.8089 51.2814 79.8089C51.6659 79.8089 52.0346 79.9617 52.3065 80.2335C52.5784 80.5054 52.7311 80.8741 52.7311 81.2586V83.7956C52.7311 86.1986 53.6857 88.5032 55.3849 90.2024C57.084 91.9015 59.3886 92.8561 61.7916 92.8561C64.1946 92.8561 66.4992 91.9015 68.1984 90.2024C69.8976 88.5032 70.8522 86.1986 70.8522 83.7956V69.6611C70.8522 69.2766 71.0049 68.9079 71.2768 68.636C71.5487 68.3642 71.9174 68.2114 72.3019 68.2114C72.6864 68.2114 73.0551 68.3642 73.327 68.636C73.5988 68.9079 73.7516 69.2766 73.7516 69.6611V83.7956C73.7477 86.9664 72.4864 90.0062 70.2443 92.2483C68.0023 94.4904 64.9624 95.7517 61.7916 95.7555Z" fill="url(#paint5_linear_8_10)"/>
<path d="M72.3019 37.1881C72.1718 37.2021 72.0406 37.2021 71.9105 37.1881L67.7209 36.0428C67.3498 35.9409 67.0345 35.6958 66.8442 35.3614C66.6539 35.027 66.6042 34.6307 66.7061 34.2597C66.808 33.8887 67.0531 33.5733 67.3875 33.383C67.7219 33.1927 68.1182 33.143 68.4892 33.2449L72.6788 34.3902C73.0633 34.4401 73.4122 34.6408 73.6487 34.948C73.8852 35.2552 73.99 35.6438 73.94 36.0283C73.8901 36.4128 73.6894 36.7617 73.3822 36.9982C73.075 37.2347 72.6864 37.3395 72.3019 37.2895V37.1881Z" fill="url(#paint6_linear_8_10)"/>
<path d="M69.5474 38.7103C69.4226 38.7304 69.2954 38.7304 69.1705 38.7103C68.9867 38.66 68.8147 38.5739 68.6642 38.457C68.5137 38.3402 68.3877 38.1947 68.2935 38.0291C68.1992 37.8635 68.1385 37.681 68.1149 37.4919C68.0913 37.3028 68.1052 37.1109 68.1557 36.9272L69.301 32.7376C69.4029 32.3666 69.648 32.0512 69.9824 31.8609C70.3168 31.6706 70.7131 31.6209 71.0841 31.7228C71.4551 31.8247 71.7705 32.0698 71.9608 32.4042C72.1511 32.7386 72.2008 33.1349 72.0989 33.5059L70.9536 37.6955C70.8599 37.9936 70.6724 38.2535 70.419 38.4364C70.1656 38.6192 69.8599 38.7153 69.5474 38.7103Z" fill="url(#paint7_linear_8_10)"/>
<path d="M25.5929 88.6375C24.1832 88.6368 22.8042 88.225 21.625 87.4525C20.4457 86.6801 19.5172 85.5805 18.9533 84.2884L0.629283 43.3203C-0.153272 41.5668 -0.208107 39.5745 0.476815 37.7806C1.16174 35.9868 2.53045 34.538 4.2825 33.7523L33.5227 20.7051C33.8443 20.6361 34.1798 20.6785 34.4741 20.8253C34.7684 20.9722 35.004 21.2147 35.1423 21.5132C35.2805 21.8116 35.3132 22.1482 35.2349 22.4676C35.1566 22.7871 34.972 23.0704 34.7115 23.2711L5.47124 36.3183C4.9425 36.5504 4.46527 36.8854 4.06739 37.3039C3.66952 37.7224 3.35896 38.2159 3.15385 38.7557C2.94873 39.2955 2.85316 39.8707 2.87271 40.4478C2.89226 41.0249 3.02654 41.5924 3.26772 42.117L21.5628 83.1722C21.7949 83.7009 22.1299 84.1782 22.5484 84.576C22.9669 84.9739 23.4604 85.2845 24.0002 85.4896C24.54 85.6947 25.1152 85.7903 25.6923 85.7707C26.2694 85.7512 26.8369 85.6169 27.3615 85.3757L39.4809 79.9684C39.8261 79.8378 40.208 79.8438 40.5489 79.9851C40.8898 80.1264 41.164 80.3924 41.3156 80.7288C41.4671 81.0652 41.4847 81.4468 41.3647 81.7958C41.2447 82.1447 40.9961 82.4348 40.6697 82.6068L28.5503 88.0142C27.6209 88.4325 26.6121 88.6452 25.5929 88.6375Z" fill="url(#paint8_linear_8_10)"/>
<path d="M18.2865 41.6531C18.0035 41.6541 17.7265 41.5722 17.4895 41.4177C17.2525 41.2631 17.0659 41.0426 16.9528 40.7833C16.8755 40.6091 16.8334 40.4214 16.8288 40.2309C16.8242 40.0405 16.8571 39.8509 16.9258 39.6732C16.9944 39.4955 17.0975 39.333 17.229 39.1952C17.3605 39.0573 17.5178 38.9467 17.6921 38.8697L29.5941 33.5493C29.7682 33.4713 29.9561 33.4283 30.1469 33.4228C30.3377 33.4174 30.5277 33.4496 30.7061 33.5175C30.8845 33.5855 31.0477 33.688 31.1865 33.819C31.3252 33.9501 31.4368 34.1072 31.5149 34.2814C31.5929 34.4556 31.6359 34.6435 31.6414 34.8343C31.6468 35.0251 31.6146 35.2151 31.5467 35.3935C31.4787 35.5718 31.3762 35.735 31.2452 35.8738C31.1141 36.0126 30.957 36.1242 30.7828 36.2022L18.8664 41.5226C18.6842 41.6057 18.4867 41.6501 18.2865 41.6531Z" fill="url(#paint9_linear_8_10)"/>
<path d="M17.8516 51.366C17.5173 51.3748 17.1902 51.2677 16.9259 51.0629C16.6615 50.8581 16.4761 50.5682 16.401 50.2423C16.3259 49.9164 16.3658 49.5746 16.5139 49.2747C16.6621 48.9749 16.9093 48.7355 17.2137 48.5971L27.0426 44.2481C27.3877 44.1175 27.7697 44.1235 28.1106 44.2648C28.4515 44.4061 28.7256 44.672 28.8772 45.0085C29.0288 45.3449 29.0464 45.7265 28.9264 46.0755C28.8064 46.4244 28.5578 46.7145 28.2313 46.8865L18.4025 51.2356C18.2292 51.3148 18.042 51.3592 17.8516 51.366Z" fill="url(#paint10_linear_8_10)"/>
<path d="M21.4033 59.2959C21.0728 59.2944 20.7528 59.18 20.4962 58.9716C20.2396 58.7633 20.0619 58.4736 19.9926 58.1505C19.9232 57.8273 19.9663 57.4902 20.1148 57.1949C20.2633 56.8997 20.5082 56.664 20.8089 56.527L24.1287 55.0773C24.4739 54.9467 24.8558 54.9527 25.1967 55.094C25.5376 55.2353 25.8118 55.5013 25.9633 55.8377C26.1149 56.1741 26.1325 56.5557 26.0125 56.9047C25.8925 57.2536 25.6439 57.5437 25.3175 57.7157L21.9977 59.1654C21.811 59.2505 21.6084 59.2949 21.4033 59.2959Z" fill="url(#paint11_linear_8_10)"/>
<path d="M37.5094 75.1264C37.3847 75.1484 37.2571 75.1484 37.1324 75.1264L26.4048 72.227C24.5527 71.7216 22.9767 70.5021 22.0228 68.8361C21.0688 67.17 20.8147 65.1936 21.3163 63.3405L33.1603 19.8933C33.4105 18.9746 33.8392 18.1143 34.422 17.3613C35.0047 16.6084 35.7301 15.9776 36.5567 15.5051C37.3833 15.0326 38.2949 14.7275 39.2394 14.6074C40.1839 14.4872 41.1428 14.5543 42.0614 14.8049L75.6507 23.9959C76.5639 24.2411 77.419 24.6662 78.1658 25.2462C78.9126 25.8262 79.5361 26.5495 79.9997 27.3737C80.4745 28.2001 80.7816 29.1121 80.9035 30.0574C81.0254 31.0026 80.9597 31.9627 80.7101 32.8825L76.0566 49.9598C75.9274 50.2942 75.679 50.5688 75.3593 50.7307C75.0396 50.8927 74.6712 50.9305 74.3253 50.8368C73.9794 50.7431 73.6804 50.5246 73.4861 50.2234C73.2918 49.9222 73.2159 49.5598 73.2732 49.206L77.9557 32.1287C78.1063 31.5771 78.1467 31.0013 78.0745 30.4342C78.0024 29.867 77.8191 29.3196 77.5353 28.8234C77.2541 28.3254 76.8757 27.889 76.4224 27.5404C75.9691 27.1917 75.4503 26.9378 74.8968 26.7938L41.351 17.5883C40.2421 17.3003 39.0642 17.4615 38.0734 18.037C37.0826 18.6124 36.359 19.5556 36.0597 20.6616L24.1287 63.9928C23.977 64.544 23.9353 65.1196 24.0062 65.6869C24.0771 66.2541 24.2591 66.8018 24.5419 67.2986C24.8246 67.7955 25.2026 68.2317 25.6541 68.5823C26.1055 68.933 26.6217 69.1912 27.1731 69.3422L37.9008 72.2415C38.0869 72.2873 38.2621 72.3694 38.4163 72.4833C38.5705 72.5972 38.7006 72.7405 38.799 72.905C38.8974 73.0695 38.9622 73.2519 38.9897 73.4416C39.0172 73.6313 39.0068 73.8245 38.9591 74.0102C38.8825 74.3345 38.6966 74.6226 38.4326 74.8259C38.1685 75.0292 37.8425 75.1353 37.5094 75.1264Z" fill="url(#paint12_linear_8_10)"/>
<path d="M62.8209 33.9408C62.6908 33.955 62.5596 33.955 62.4295 33.9408L49.8462 30.5195C49.6624 30.4692 49.4903 30.3831 49.3399 30.2662C49.1894 30.1494 49.0634 30.004 48.9691 29.8383C48.8749 29.6727 48.8142 29.4902 48.7906 29.3011C48.7669 29.112 48.7808 28.9201 48.8314 28.7364C48.871 28.5496 48.9471 28.3725 49.0553 28.2152C49.1635 28.0579 49.3018 27.9236 49.4621 27.8199C49.6224 27.7161 49.8016 27.6451 49.9894 27.6108C50.1772 27.5766 50.37 27.5797 50.5565 27.6201L63.1398 31.0704C63.3302 31.0952 63.5139 31.1572 63.6803 31.2529C63.8467 31.3486 63.9926 31.4762 64.1097 31.6283C64.2268 31.7804 64.3128 31.9541 64.3628 32.1394C64.4128 32.3248 64.4258 32.5182 64.4011 32.7086C64.3763 32.8989 64.3143 33.0826 64.2186 33.249C64.1229 33.4154 63.9953 33.5613 63.8432 33.6784C63.6911 33.7956 63.5174 33.8816 63.332 33.9316C63.1467 33.9815 62.9533 33.9945 62.7629 33.9698L62.8209 33.9408Z" fill="url(#paint13_linear_8_10)"/>
<path d="M64.72 43.4798C64.5899 43.494 64.4587 43.494 64.3286 43.4798L43.3081 37.768C42.9236 37.6603 42.5977 37.4044 42.4019 37.0564C42.2062 36.7084 42.1567 36.2969 42.2643 35.9124C42.372 35.5279 42.628 35.202 42.976 35.0062C43.324 34.8105 43.7355 34.761 44.1199 34.8686L65.0534 40.6674C65.4379 40.7174 65.7868 40.918 66.0233 41.2252C66.2598 41.5325 66.3646 41.921 66.3147 42.3055C66.2647 42.69 66.064 43.0389 65.7568 43.2754C65.4496 43.5119 65.061 43.6167 64.6765 43.5668L64.72 43.4798Z" fill="url(#paint14_linear_8_10)"/>
<path d="M58.5443 50.8152C58.4196 50.8372 58.2921 50.8372 58.1674 50.8152L41.0611 46.1327C40.8745 46.0804 40.7001 45.9918 40.5478 45.872C40.3954 45.7522 40.2682 45.6036 40.1733 45.4347C40.0784 45.2658 40.0177 45.0798 39.9946 44.8874C39.9716 44.695 39.9867 44.4999 40.0391 44.3134C40.0914 44.1268 40.18 43.9524 40.2998 43.8C40.4195 43.6477 40.5681 43.5204 40.7371 43.4255C40.906 43.3306 41.092 43.2699 41.2844 43.2469C41.4768 43.2239 41.6718 43.239 41.8584 43.2913L58.9212 47.9158C59.2892 48.0176 59.6021 48.2604 59.7921 48.5916C59.9821 48.9227 60.0338 49.3154 59.936 49.6844C59.8645 50.0017 59.6884 50.2857 59.436 50.4908C59.1836 50.6959 58.8695 50.8102 58.5443 50.8152Z" fill="url(#paint15_linear_8_10)"/>
<defs>
<linearGradient id="paint0_linear_8_10" x1="617.945" y1="91" x2="101.46" y2="12.2963" gradientUnits="userSpaceOnUse">
<stop stop-color="#0D0D0D"/>
<stop stop-color="#62FF78"/>
<stop offset="1" stop-color="#FCF6AF"/>
</linearGradient>
<linearGradient id="paint1_linear_8_10" x1="81.4526" y1="67.4802" x2="63.4473" y2="66.8615" gradientUnits="userSpaceOnUse">
<stop stop-color="#0D0D0D"/>
<stop stop-color="#62FF78"/>
<stop offset="1" stop-color="#FCF6AF"/>
</linearGradient>
<linearGradient id="paint2_linear_8_10" x1="76.1147" y1="63.2573" x2="68.6586" y2="62.6168" gradientUnits="userSpaceOnUse">
<stop stop-color="#0D0D0D"/>
<stop stop-color="#62FF78"/>
<stop offset="1" stop-color="#FCF6AF"/>
</linearGradient>
<linearGradient id="paint3_linear_8_10" x1="73.827" y1="64.5242" x2="70.8231" y2="64.4829" gradientUnits="userSpaceOnUse">
<stop stop-color="#0D0D0D"/>
<stop stop-color="#62FF78"/>
<stop offset="1" stop-color="#FCF6AF"/>
</linearGradient>
<linearGradient id="paint4_linear_8_10" x1="61.1947" y1="76.6574" x2="41.6757" y2="76.2214" gradientUnits="userSpaceOnUse">
<stop stop-color="#0D0D0D"/>
<stop stop-color="#62FF78"/>
<stop offset="1" stop-color="#FCF6AF"/>
</linearGradient>
<linearGradient id="paint5_linear_8_10" x1="74.3739" y1="90.0072" x2="49.6094" y2="89.2682" gradientUnits="userSpaceOnUse">
<stop stop-color="#0D0D0D"/>
<stop stop-color="#62FF78"/>
<stop offset="1" stop-color="#FCF6AF"/>
</linearGradient>
<linearGradient id="paint6_linear_8_10" x1="74.1421" y1="36.4443" x2="66.6078" y2="35.9844" gradientUnits="userSpaceOnUse">
<stop stop-color="#0D0D0D"/>
<stop stop-color="#62FF78"/>
<stop offset="1" stop-color="#FCF6AF"/>
</linearGradient>
<linearGradient id="paint7_linear_8_10" x1="72.256" y1="37.2531" x2="68.064" y2="37.1705" gradientUnits="userSpaceOnUse">
<stop stop-color="#0D0D0D"/>
<stop stop-color="#62FF78"/>
<stop offset="1" stop-color="#FCF6AF"/>
</linearGradient>
<linearGradient id="paint8_linear_8_10" x1="42.5217" y1="74.4537" x2="-0.404502" y2="73.5543" gradientUnits="userSpaceOnUse">
<stop stop-color="#0D0D0D"/>
<stop stop-color="#62FF78"/>
<stop offset="1" stop-color="#FCF6AF"/>
</linearGradient>
<linearGradient id="paint9_linear_8_10" x1="32.0274" y1="39.9353" x2="16.7355" y2="38.9897" gradientUnits="userSpaceOnUse">
<stop stop-color="#0D0D0D"/>
<stop stop-color="#62FF78"/>
<stop offset="1" stop-color="#FCF6AF"/>
</linearGradient>
<linearGradient id="paint10_linear_8_10" x1="29.3341" y1="49.8614" x2="16.2822" y2="49.0753" gradientUnits="userSpaceOnUse">
<stop stop-color="#0D0D0D"/>
<stop stop-color="#62FF78"/>
<stop offset="1" stop-color="#FCF6AF"/>
</linearGradient>
<linearGradient id="paint11_linear_8_10" x1="26.2508" y1="58.3959" x2="19.9128" y2="58.0863" gradientUnits="userSpaceOnUse">
<stop stop-color="#0D0D0D"/>
<stop stop-color="#62FF78"/>
<stop offset="1" stop-color="#FCF6AF"/>
</linearGradient>
<linearGradient id="paint12_linear_8_10" x1="82.5214" y1="62.4973" x2="20.5242" y2="60.3914" gradientUnits="userSpaceOnUse">
<stop stop-color="#0D0D0D"/>
<stop stop-color="#62FF78"/>
<stop offset="1" stop-color="#FCF6AF"/>
</linearGradient>
<linearGradient id="paint13_linear_8_10" x1="64.82" y1="32.6474" x2="48.7332" y2="31.296" gradientUnits="userSpaceOnUse">
<stop stop-color="#0D0D0D"/>
<stop stop-color="#62FF78"/>
<stop offset="1" stop-color="#FCF6AF"/>
</linearGradient>
<linearGradient id="paint14_linear_8_10" x1="66.9543" y1="41.7495" x2="42.1836" y2="39.4077" gradientUnits="userSpaceOnUse">
<stop stop-color="#0D0D0D"/>
<stop stop-color="#62FF78"/>
<stop offset="1" stop-color="#FCF6AF"/>
</linearGradient>
<linearGradient id="paint15_linear_8_10" x1="60.5048" y1="49.2466" x2="39.9482" y2="47.3866" gradientUnits="userSpaceOnUse">
<stop stop-color="#0D0D0D"/>
<stop stop-color="#62FF78"/>
<stop offset="1" stop-color="#FCF6AF"/>
</linearGradient>
</defs>
</svg>
